PathFileType	4	(X/Y/Z)	s05c0103.trc
DataRate	CameraRate	NumFrames	NumMarkers	Units	OrigDataRate	OrigDataStartFrame	OrigNumFrames
200	200	4	49	mm	200	1500	2000
Frame#	Time	racr			lacr			c7			jug			rlel			rdr			llel			ldr			s2			lic			ric			lasi			rasi			rpsi			lpsi			rgt			lgt			rth1			rth2			rth3			rth4			rlfc			rsh1			rsh2			rsh3			rsh4			rlmal			rmmal			rcal			rtoe			rmt5			lth1			lth2			lth4			lth3			llfc			lmfc			lsh1			lsh2			lsh3			lsh4			llmal			lmmal			lcal			ltoe			lmt5			SBIKE			LBIKE			RBIKE			
		X1	Y1	Z1	X2	Y2	Z2	X3	Y3	Z3	X4	Y4	Z4	X5	Y5	Z5	X6	Y6	Z6	X7	Y7	Z7	X8	Y8	Z8	X9	Y9	Z9	X10	Y10	Z10	X11	Y11	Z11	X12	Y12	Z12	X13	Y13	Z13	X14	Y14	Z14	X15	Y15	Z15	X16	Y16	Z16	X17	Y17	Z17	X18	Y18	Z18	X19	Y19	Z19	X20	Y20	Z20	X21	Y21	Z21	X22	Y22	Z22	X23	Y23	Z23	X24	Y24	Z24	X25	Y25	Z25	X26	Y26	Z26	X27	Y27	Z27	X28	Y28	Z28	X29	Y29	Z29	X30	Y30	Z30	X31	Y31	Z31	X32	Y32	Z32	X33	Y33	Z33	X34	Y34	Z34	X35	Y35	Z35	X36	Y36	Z36	X37	Y37	Z37	X38	Y38	Z38	X39	Y39	Z39	X40	Y40	Z40	X41	Y41	Z41	X42	Y42	Z42	X43	Y43	Z43	X44	Y44	Z44	X45	Y45	Z45	X46	Y46	Z46	X47	Y47	Z47	X48	Y48	Z48	X49	Y49	Z49	
1500	7.5000	489.297947	1263.561550	-193.237099	478.950179	1244.451600	-432.428050	468.497389	1320.824483	-321.135798	405.910318	1173.146617	-305.189693	516.345532	1067.762948	-0.100165	693.216823	932.681938	-90.901196	480.764942	1023.178013	-619.436006	681.988954	920.400356	-491.271183	-116.114768	1166.703350	-268.557559	12.276446	1173.696035	-421.923676	38.354267	1197.501650	-137.394560	63.213692	1124.444997	-387.775549	80.870607	1137.201277	-165.290707	-79.898560	1217.052582	-232.135735	-82.313472	1214.536642	-317.766791	-3.019073	1056.865105	-104.386928	-34.178272	1074.801981	-442.168446	94.456504	969.536155	-101.146716	168.886893	921.680865	-110.189658	207.597772	843.503543	-121.810730	193.989431	946.250075	-121.436598	307.210571	737.578494	-155.641205	263.700998	637.429019	-117.518863	275.133208	549.450373	-123.939637	244.781777	469.386561	-119.960488	301.258028	547.287511	-152.077952	229.870475	335.215758	-116.714832	234.493597	360.823561	-198.291540	162.498517	291.327997	-156.927928	458.347031	306.302770	-161.816499	362.096324	274.182581	-93.745459	86.902187	991.453388	-455.232403	171.528625	976.332347	-450.789930	187.432904	1006.381060	-434.575134	239.286031	915.914275	-449.356079	346.985937	819.669412	-415.343141	324.438737	802.312208	-310.020954	257.348988	734.616790	-447.217673	216.051689	658.034840	-439.877991	140.188683	611.443288	-444.684218	237.581077	638.743033	-414.187168	66.262257	524.393792	-446.126280	0.000000	0.000000	-0.000000	0.538379	551.953098	-403.688530	139.811508	292.072499	-395.156418	63.399363	368.129668	-462.851937	-220.225454	908.909080	-273.607516	-53.338001	79.188330	-474.567585	-53.348467	79.086485	-76.981817	
1501	7.5050	489.982444	1263.994642	-195.184942	477.858882	1244.575975	-434.345656	468.552560	1321.150905	-323.142535	405.375792	1173.807042	-306.478707	517.248363	1068.763069	-0.967723	693.734343	932.458438	-91.117123	480.312417	1022.269612	-619.855891	681.980652	920.582701	-491.308781	-114.893156	1166.744717	-265.613539	11.678659	1175.363652	-420.480137	40.397282	1197.008702	-135.783072	62.986557	1126.256249	-386.789307	82.547335	1136.673377	-164.095954	-78.656051	1217.007808	-229.480846	-82.154050	1215.421585	-314.988405	-1.935724	1055.232806	-103.477072	-34.285563	1077.336614	-441.112271	93.735073	965.795854	-100.541952	166.558412	915.656144	-109.690518	202.648577	836.116632	-121.478565	192.472827	939.371148	-121.029801	299.549613	727.742506	-155.120886	257.420908	627.731635	-116.338410	269.401685	539.899968	-122.910019	239.898381	459.498395	-118.728440	295.224671	537.974206	-151.312289	226.693911	325.166894	-115.734339	230.583481	350.517370	-197.303724	158.238681	282.308271	-154.583761	454.994523	295.471420	-162.476405	359.113812	263.924613	-93.677589	87.769822	995.797825	-454.918415	172.761106	982.362840	-450.383417	187.930974	1012.846317	-434.076987	241.789323	923.688025	-449.486593	351.312523	828.953301	-415.886666	328.999094	811.157489	-310.514741	261.004496	744.488997	-447.529169	219.620365	668.173547	-440.268481	143.241241	621.924037	-444.524883	241.112730	648.268863	-415.013296	68.811473	535.017701	-446.206312	0.000000	0.000000	-0.000000	2.812538	562.244107	-403.643722	143.557176	303.267217	-395.359409	66.683763	378.845053	-462.822348	-220.143273	909.000332	-273.546675	-53.308410	79.255045	-474.603225	-53.325353	79.109922	-76.986281	
1502	7.5100	490.618725	1264.257933	-197.052133	476.815511	1244.768020	-436.279939	469.020760	1321.610014	-324.978104	404.327494	1174.983523	-307.843155	518.094052	1069.638025	-1.919487	694.213227	932.155930	-91.426245	479.742948	1021.338272	-620.214283	681.904513	920.772152	-491.308979	-114.047857	1167.545506	-263.060984	10.873188	1176.968970	-418.616446	42.291547	1196.637090	-134.333066	62.671382	1127.999359	-385.603522	84.061017	1136.258553	-163.170436	-77.292017	1217.203692	-226.841353	-81.429861	1216.344369	-312.300900	-1.049399	1053.919468	-102.749445	-34.244340	1080.160898	-440.178892	92.757962	962.326997	-100.026278	163.842360	909.817885	-109.120831	197.390007	829.031374	-120.887856	190.513293	932.604143	-121.138767	291.592992	718.528637	-154.354453	250.858392	618.652263	-114.933526	263.259357	530.962234	-121.789540	234.498005	450.359741	-117.234192	289.044866	529.394624	-150.691353	223.017307	315.608082	-114.544485	226.227248	340.690485	-196.202715	154.219202	273.056764	-152.973392	450.927833	284.865873	-163.178806	355.525952	253.807209	-93.632395	88.698271	1000.686524	-454.532874	173.872495	988.946159	-450.034967	188.486489	1019.657929	-433.504761	244.133147	931.695285	-449.582626	355.448067	838.586361	-416.592403	333.599936	820.173844	-311.135313	264.667758	754.591477	-447.831554	222.531894	678.328730	-440.003594	146.400199	632.517165	-444.480442	244.687715	658.260459	-415.773276	71.424510	545.531997	-446.179986	0.000000	0.000000	-0.000000	5.106076	572.152928	-403.643043	148.080426	314.408835	-395.375652	70.574883	389.439400	-462.856242	-220.089100	909.063990	-273.511478	-53.293174	79.288288	-474.599883	-53.311720	79.105944	-76.982699	
1503	7.5150	491.320252	1264.482655	-198.898748	475.919982	1245.010208	-438.216578	469.107187	1321.872015	-326.840960	404.011813	1175.486446	-309.205371	519.007578	1070.409471	-3.001912	694.641399	931.805019	-91.831332	479.153562	1020.482731	-620.462370	681.825482	920.961418	-491.460647	-113.310798	1168.361901	-260.772261	10.320392	1178.879316	-417.158400	44.316985	1196.230403	-132.876332	62.469780	1129.864069	-384.547451	85.824598	1136.150427	-162.209831	-76.010280	1217.288363	-224.313421	-80.362159	1217.047480	-309.951869	-0.272319	1052.531270	-102.226176	-34.121221	1083.412014	-439.501653	91.392213	959.088064	-99.147112	160.790240	904.116516	-108.224316	191.147296	822.184760	-120.610066	188.226280	926.324313	-120.431398	283.477971	709.914951	-153.238020	243.912949	610.321171	-113.398369	256.842809	522.677758	-120.533028	228.762485	441.909676	-115.604505	282.240877	521.260140	-149.765278	218.829724	306.749682	-113.268625	221.428809	331.316762	-194.972493	149.657926	264.492665	-151.047884	446.293050	274.291805	-163.925382	351.411217	244.113779	-93.533641	89.477726	1006.057935	-454.234343	174.887052	995.931345	-449.710683	188.822723	1026.917541	-433.023287	246.314176	940.073600	-449.868523	359.353441	848.567855	-417.612227	338.223350	829.351091	-311.755553	268.402462	764.903244	-448.144301	225.952254	688.753705	-440.398019	149.600756	643.217056	-444.298771	248.394363	668.355565	-416.801013	74.060005	555.897628	-445.980797	0.000000	0.000000	-0.000000	7.413735	581.736998	-403.600660	153.261262	325.552266	-395.396010	74.998071	399.800779	-462.894884	-220.059000	909.109457	-273.451324	-53.282981	79.338388	-474.594443	-53.304546	79.131467	-76.983103	
